# xmcd
# Track frame offsets:
# 150
# 14345
# 36880
# 52362
# 68366
# 84928
# 99966
# 114499
# 137430
# 155533
# 171485
# 191173
# 205401
# 222946
# 240752
# 254780
# 269408
# 285378
# 298125
# 313607
# 326808
#
# Disc length: 4553 seconds
# Revision: 0
# Processed by: cddbd v1.5.2PL0 Copyright (c) Steve Scherf et al.
# Submitted via: VisiTrax 2.11.2.271 - For more info visit www.synapsa.com
#
DISCID=3b11c715
DTITLE=Various Artist - LBS Country Collection - Vol.18
DYEAR=2013
DGENRE=Country
TTITLE0=Duncan, Dale - Heart of Australia
TTITLE1=Letton, Brian - Pocket Bible
TTITLE2=Leigh, Shaza - I Won't Take Down Your Picture
TTITLE3=Maxwell, Tom - Reasons to Quit
TTITLE4=Parlane, Noel - Tips of My Fingers
TTITLE5=Cook, Ashley - Tugging  at My Reins
TTITLE6=Ross, Lana - Sydney  or the Bush
TTITLE7=Standley, Justin - From the Mountain Top
TTITLE8=Guest, Lynette - Auctioneer
TTITLE9=Gilchrist, Peggy - Tropical Daydream
TTITLE10=Bain, Greg - Land of the Free
TTITLE11=Stafford, Jean - Bring out the Grey
TTITLE12=Ovenden, Bob - If You're Gonnma Do Me Wrong (Do It Right)
TTITLE13=Standley, Justin and Shaza Leigh - Dreamtime Cathedrals
TTITLE14=Jillett, Rachel - Vacant Chair, The
TTITLE15=Ross, Lana and Greg Bain - Nullabor Song, The
TTITLE16=Lindsay, Dianne and Peter Simpson - Brigalow Bill
TTITLE17=Ovenden, Biob and Michelle - Rubba Dubbinm
TTITLE18=Ovenden, Michelle - 'Guessing Games
TTITLE19=Walton, Joe - I Can Walk on Water
TTITLE20=Butler, Lindsay and Peter Simpson - Wind-up Gramophone, The
EXTD=
EXTT0=
EXTT1=
EXTT2=
EXTT3=
EXTT4=
EXTT5=
EXTT6=
EXTT7=
EXTT8=
EXTT9=
EXTT10=
EXTT11=
EXTT12=
EXTT13=
EXTT14=
EXTT15=
EXTT16=
EXTT17=
EXTT18=
EXTT19=
EXTT20=
PLAYORDER=
